<svg width="24" height="24" viewBox="0 0 24 24" fill="none" xmlns="http://www.w3.org/2000/svg">
<path fill-rule="evenodd" clip-rule="evenodd" d="M21.6488 19.875C20.2209 17.4065 18.0206 15.6365 15.4528 14.7975C18.0636 13.2433 19.3142 10.1364 18.5082 7.20688C17.7022 4.2774 15.0383 2.24744 12 2.24744C8.96168 2.24744 6.2978 4.2774 5.49183 7.20688C4.68586 10.1364 5.93646 13.2433 8.5472 14.7975C5.97939 15.6356 3.77907 17.4056 2.35126 19.875C2.20871 20.1074 2.20354 20.3989 2.33774 20.6362C2.47194 20.8736 2.72439 21.0194 2.99703 21.0171C3.26968 21.0147 3.51958 20.8646 3.6497 20.625C5.41595 17.5725 8.53782 15.75 12 15.75C15.4622 15.75 18.5841 17.5725 20.3503 20.625C20.4804 20.8646 20.7303 21.0147 21.003 21.0171C21.2756 21.0194 21.5281 20.8736 21.6623 20.6362C21.7965 20.3989 21.7913 20.1074 21.6488 19.875ZM6.75001 8.99999C6.75001 6.10049 9.10051 3.74999 12 3.74999C14.8995 3.74999 17.25 6.10049 17.25 8.99999C17.25 11.8995 14.8995 14.25 12 14.25C9.1018 14.2469 6.75311 11.8982 6.75001 8.99999Z" fill="#4F8096"/>
</svg>
