<svg width="24" height="24" viewBox="0 0 24 24" fill="none" xmlns="http://www.w3.org/2000/svg">
<g clip-path="url(#clip0_2_94)">
<path fill-rule="evenodd" clip-rule="evenodd" d="M21.6497 20.625C21.5157 20.8571 21.268 21.0001 21 21H3C2.73219 20.9997 2.48484 20.8567 2.35106 20.6247C2.21727 20.3927 2.21734 20.1069 2.35125 19.875C3.77906 17.4066 5.97938 15.6366 8.54719 14.7975C5.93645 13.2433 4.68585 10.1364 5.49182 7.2069C6.29779 4.27741 8.96167 2.24745 12 2.24745C15.0383 2.24745 17.7022 4.27741 18.5082 7.2069C19.3141 10.1364 18.0635 13.2433 15.4528 14.7975C18.0206 15.6366 20.2209 17.4066 21.6488 19.875C21.783 20.1069 21.7834 20.3928 21.6497 20.625Z" fill="#0D171C"/>
</g>
<defs>
<clipPath id="clip0_2_94">
<rect width="24" height="24" fill="white"/>
</clipPath>
</defs>
</svg>
