<svg width="24" height="24" viewBox="0 0 24 24" fill="none" xmlns="http://www.w3.org/2000/svg">
<g clip-path="url(#clip0_1_469)">
<path fill-rule="evenodd" clip-rule="evenodd" d="M21.75 19.5C21.75 19.9142 21.4142 20.25 21 20.25H3C2.58579 20.25 2.25 19.9142 2.25 19.5C2.25 19.0858 2.58579 18.75 3 18.75H21C21.4142 18.75 21.75 19.0858 21.75 19.5ZM21.75 5.25V15.75C21.75 16.5784 21.0784 17.25 20.25 17.25H3.75C2.92157 17.25 2.25 16.5784 2.25 15.75V5.25C2.25 4.42157 2.92157 3.75 3.75 3.75H20.25C21.0784 3.75 21.75 4.42157 21.75 5.25ZM15.375 10.5C15.3749 10.2435 15.2437 10.0048 15.0272 9.86719L10.9022 7.24219C10.6713 7.09547 10.3788 7.08615 10.139 7.21786C9.89915 7.34956 9.75008 7.60141 9.75 7.875V13.125C9.75008 13.3986 9.89915 13.6504 10.139 13.7821C10.3788 13.9139 10.6713 13.9045 10.9022 13.7578L15.0272 11.1328C15.2437 10.9952 15.3749 10.7565 15.375 10.5Z" fill="#0D171C"/>
</g>
<defs>
<clipPath id="clip0_1_469">
<rect width="24" height="24" fill="white"/>
</clipPath>
</defs>
</svg>
